<svg xmlns="http://www.w3.org/2000/svg" xmlns:xlink="http://www.w3.org/1999/xlink" width="600" height="480" viewBox="0 0 600 480"><title>Gnuplot</title><desc>Produced by GNUPLOT 5.0 patchlevel 5</desc><g id="gnuplot_canvas"><rect width="600" height="480" x="0" y="0" fill="none"/><defs><circle id="gpDot" r=".5" stroke-width=".5"/><path id="gpPt0" stroke="currentColor" stroke-width=".222" d="M-1,0 h2 M0,-1 v2"/><path id="gpPt1" stroke="currentColor" stroke-width=".222" d="M-1,-1 L1,1 M1,-1 L-1,1"/><path id="gpPt2" stroke="currentColor" stroke-width=".222" d="M-1,0 L1,0 M0,-1 L0,1 M-1,-1 L1,1 M-1,1 L1,-1"/><rect id="gpPt3" width="2" height="2" x="-1" y="-1" stroke="currentColor" stroke-width=".222"/><rect id="gpPt4" width="2" height="2" x="-1" y="-1" fill="currentColor" stroke="currentColor" stroke-width=".222"/><circle id="gpPt5" cx="0" cy="0" r="1" stroke="currentColor" stroke-width=".222"/><use id="gpPt6" fill="currentColor" stroke="none" xlink:href="#gpPt5"/><path id="gpPt7" stroke="currentColor" stroke-width=".222" d="M0,-1.33 L-1.33,0.67 L1.33,0.67 z"/><use id="gpPt8" fill="currentColor" stroke="none" xlink:href="#gpPt7"/><use id="gpPt9" stroke="currentColor" transform="rotate(180)" xlink:href="#gpPt7"/><use id="gpPt10" fill="currentColor" stroke="none" xlink:href="#gpPt9"/><use id="gpPt11" stroke="currentColor" transform="rotate(45)" xlink:href="#gpPt3"/><use id="gpPt12" fill="currentColor" stroke="none" xlink:href="#gpPt11"/><path id="gpPt13" stroke="currentColor" stroke-width=".222" d="M0,1.330 L1.265,0.411 L0.782,-1.067 L-0.782,-1.076 L-1.265,0.411 z"/><use id="gpPt14" fill="currentColor" stroke="none" xlink:href="#gpPt13"/><filter id="textbox" width="1" height="1" x="0" y="0" filterUnits="objectBoundingBox"><feFlood flood-color="#fff" flood-opacity="1" result="bgnd"/><feComposite in="SourceGraphic" in2="bgnd" operator="atop"/></filter><filter id="greybox" width="1" height="1" x="0" y="0" filterUnits="objectBoundingBox"><feFlood flood-color="#d3d3d3" flood-opacity="1" result="grey"/><feComposite in="SourceGraphic" in2="grey" operator="atop"/></filter></defs><g fill="none" stroke="currentColor" stroke-linecap="butt" stroke-linejoin="miter" stroke-width="1" color="#000"><path stroke="#000" d="M53.9,444.0 L62.9,444.0 M575.0,444.0 L566.0,444.0"/><g fill="#000" stroke="none" font-family="Arial" font-size="12" text-anchor="end"><text transform="translate(45.6,447.9)"><tspan font-family="Arial">-1</tspan></text></g></g><g fill="none" stroke="currentColor" stroke-linecap="butt" stroke-linejoin="miter" stroke-width="1" color="#000"><path stroke="#000" d="M53.9,405.0 L62.9,405.0 M575.0,405.0 L566.0,405.0"/><g fill="#000" stroke="none" font-family="Arial" font-size="12" text-anchor="end"><text transform="translate(45.6,408.9)"><tspan font-family="Arial">-0.8</tspan></text></g></g><g fill="none" stroke="currentColor" stroke-linecap="butt" stroke-linejoin="miter" stroke-width="1" color="#000"><path stroke="#000" d="M53.9,366.0 L62.9,366.0 M575.0,366.0 L566.0,366.0"/><g fill="#000" stroke="none" font-family="Arial" font-size="12" text-anchor="end"><text transform="translate(45.6,369.9)"><tspan font-family="Arial">-0.6</tspan></text></g></g><g fill="none" stroke="currentColor" stroke-linecap="butt" stroke-linejoin="miter" stroke-width="1" color="#000"><path stroke="#000" d="M53.9,327.0 L62.9,327.0 M575.0,327.0 L566.0,327.0"/><g fill="#000" stroke="none" font-family="Arial" font-size="12" text-anchor="end"><text transform="translate(45.6,330.9)"><tspan font-family="Arial">-0.4</tspan></text></g></g><g fill="none" stroke="currentColor" stroke-linecap="butt" stroke-linejoin="miter" stroke-width="1" color="#000"><path stroke="#000" d="M53.9,288.0 L62.9,288.0 M575.0,288.0 L566.0,288.0"/><g fill="#000" stroke="none" font-family="Arial" font-size="12" text-anchor="end"><text transform="translate(45.6,291.9)"><tspan font-family="Arial">-0.2</tspan></text></g></g><g fill="none" stroke="currentColor" stroke-linecap="butt" stroke-linejoin="miter" stroke-width="1" color="#000"><path stroke="#000" d="M53.9,249.0 L62.9,249.0 M575.0,249.0 L566.0,249.0"/><g fill="#000" stroke="none" font-family="Arial" font-size="12" text-anchor="end"><text transform="translate(45.6,252.9)"><tspan font-family="Arial">0</tspan></text></g></g><g fill="none" stroke="currentColor" stroke-linecap="butt" stroke-linejoin="miter" stroke-width="1" color="#000"><path stroke="#000" d="M53.9,210.1 L62.9,210.1 M575.0,210.1 L566.0,210.1"/><g fill="#000" stroke="none" font-family="Arial" font-size="12" text-anchor="end"><text transform="translate(45.6,214.0)"><tspan font-family="Arial">0.2</tspan></text></g></g><g fill="none" stroke="currentColor" stroke-linecap="butt" stroke-linejoin="miter" stroke-width="1" color="#000"><path stroke="#000" d="M53.9,171.1 L62.9,171.1 M575.0,171.1 L566.0,171.1"/><g fill="#000" stroke="none" font-family="Arial" font-size="12" text-anchor="end"><text transform="translate(45.6,175.0)"><tspan font-family="Arial">0.4</tspan></text></g></g><g fill="none" stroke="currentColor" stroke-linecap="butt" stroke-linejoin="miter" stroke-width="1" color="#000"><path stroke="#000" d="M53.9,132.1 L62.9,132.1 M575.0,132.1 L566.0,132.1"/><g fill="#000" stroke="none" font-family="Arial" font-size="12" text-anchor="end"><text transform="translate(45.6,136.0)"><tspan font-family="Arial">0.6</tspan></text></g></g><g fill="none" stroke="currentColor" stroke-linecap="butt" stroke-linejoin="miter" stroke-width="1" color="#000"><path stroke="#000" d="M53.9,93.1 L62.9,93.1 M575.0,93.1 L566.0,93.1"/><g fill="#000" stroke="none" font-family="Arial" font-size="12" text-anchor="end"><text transform="translate(45.6,97.0)"><tspan font-family="Arial">0.8</tspan></text></g></g><g fill="none" stroke="currentColor" stroke-linecap="butt" stroke-linejoin="miter" stroke-width="1" color="#000"><path stroke="#000" d="M53.9,54.1 L62.9,54.1 M575.0,54.1 L566.0,54.1"/><g fill="#000" stroke="none" font-family="Arial" font-size="12" text-anchor="end"><text transform="translate(45.6,58.0)"><tspan font-family="Arial">1</tspan></text></g></g><g fill="none" stroke="currentColor" stroke-linecap="butt" stroke-linejoin="miter" stroke-width="1" color="#000"><path stroke="#000" d="M53.9,444.0 L53.9,435.0 M53.9,54.1 L53.9,63.1"/><g fill="#000" stroke="none" font-family="Arial" font-size="12" text-anchor="middle"><text transform="translate(53.9,465.9)"><tspan font-family="Arial">0</tspan></text></g></g><g fill="none" stroke="currentColor" stroke-linecap="butt" stroke-linejoin="miter" stroke-width="1" color="#000"><path stroke="#000" d="M106.0,444.0 L106.0,435.0 M106.0,54.1 L106.0,63.1"/><g fill="#000" stroke="none" font-family="Arial" font-size="12" text-anchor="middle"><text transform="translate(106.0,465.9)"><tspan font-family="Arial">10</tspan></text></g></g><g fill="none" stroke="currentColor" stroke-linecap="butt" stroke-linejoin="miter" stroke-width="1" color="#000"><path stroke="#000" d="M158.1,444.0 L158.1,435.0 M158.1,54.1 L158.1,63.1"/><g fill="#000" stroke="none" font-family="Arial" font-size="12" text-anchor="middle"><text transform="translate(158.1,465.9)"><tspan font-family="Arial">20</tspan></text></g></g><g fill="none" stroke="currentColor" stroke-linecap="butt" stroke-linejoin="miter" stroke-width="1" color="#000"><path stroke="#000" d="M210.2,444.0 L210.2,435.0 M210.2,54.1 L210.2,63.1"/><g fill="#000" stroke="none" font-family="Arial" font-size="12" text-anchor="middle"><text transform="translate(210.2,465.9)"><tspan font-family="Arial">30</tspan></text></g></g><g fill="none" stroke="currentColor" stroke-linecap="butt" stroke-linejoin="miter" stroke-width="1" color="#000"><path stroke="#000" d="M262.3,444.0 L262.3,435.0 M262.3,54.1 L262.3,63.1"/><g fill="#000" stroke="none" font-family="Arial" font-size="12" text-anchor="middle"><text transform="translate(262.3,465.9)"><tspan font-family="Arial">40</tspan></text></g></g><g fill="none" stroke="currentColor" stroke-linecap="butt" stroke-linejoin="miter" stroke-width="1" color="#000"><path stroke="#000" d="M314.5,444.0 L314.5,435.0 M314.5,54.1 L314.5,63.1"/><g fill="#000" stroke="none" font-family="Arial" font-size="12" text-anchor="middle"><text transform="translate(314.5,465.9)"><tspan font-family="Arial">50</tspan></text></g></g><g fill="none" stroke="currentColor" stroke-linecap="butt" stroke-linejoin="miter" stroke-width="1" color="#000"><path stroke="#000" d="M366.6,444.0 L366.6,435.0 M366.6,54.1 L366.6,63.1"/><g fill="#000" stroke="none" font-family="Arial" font-size="12" text-anchor="middle"><text transform="translate(366.6,465.9)"><tspan font-family="Arial">60</tspan></text></g></g><g fill="none" stroke="currentColor" stroke-linecap="butt" stroke-linejoin="miter" stroke-width="1" color="#000"><path stroke="#000" d="M418.7,444.0 L418.7,435.0 M418.7,54.1 L418.7,63.1"/><g fill="#000" stroke="none" font-family="Arial" font-size="12" text-anchor="middle"><text transform="translate(418.7,465.9)"><tspan font-family="Arial">70</tspan></text></g></g><g fill="none" stroke="currentColor" stroke-linecap="butt" stroke-linejoin="miter" stroke-width="1" color="#000"><path stroke="#000" d="M470.8,444.0 L470.8,435.0 M470.8,54.1 L470.8,63.1"/><g fill="#000" stroke="none" font-family="Arial" font-size="12" text-anchor="middle"><text transform="translate(470.8,465.9)"><tspan font-family="Arial">80</tspan></text></g></g><g fill="none" stroke="currentColor" stroke-linecap="butt" stroke-linejoin="miter" stroke-width="1" color="#000"><path stroke="#000" d="M522.9,444.0 L522.9,435.0 M522.9,54.1 L522.9,63.1"/><g fill="#000" stroke="none" font-family="Arial" font-size="12" text-anchor="middle"><text transform="translate(522.9,465.9)"><tspan font-family="Arial">90</tspan></text></g></g><g fill="none" stroke="currentColor" stroke-linecap="butt" stroke-linejoin="miter" stroke-width="1" color="#000"><path stroke="#000" d="M575.0,444.0 L575.0,435.0 M575.0,54.1 L575.0,63.1"/><g fill="#000" stroke="none" font-family="Arial" font-size="12" text-anchor="middle"><text transform="translate(575.0,465.9)"><tspan font-family="Arial">100</tspan></text></g></g><g fill="none" stroke="currentColor" stroke-linecap="butt" stroke-linejoin="miter" stroke-width="1" color="#000"><path stroke="#000" d="M53.9,54.1 L53.9,444.0 L575.0,444.0 L575.0,54.1 L53.9,54.1 Z"/></g><g fill="none" stroke="currentColor" stroke-linecap="butt" stroke-linejoin="miter" stroke-width="1" color="#000"><g fill="#000" stroke="none" font-family="Arial" font-size="12" text-anchor="middle"><text transform="translate(314.4,31.0)"><tspan font-family="Arial">OUTPUTFILE</tspan></text></g></g><g id="gnuplot_plot_1"><title>&quot;data.txt&quot;</title><g fill="none" stroke="currentColor" stroke-linecap="butt" stroke-linejoin="miter" stroke-width="1" color="#000"><g fill="#000" stroke="none" font-family="Arial" font-size="12" text-anchor="end"><text transform="translate(507.9,76.0)">&quot;data.txt&quot;</text></g></g><g fill="none" stroke="currentColor" stroke-linecap="butt" stroke-linejoin="miter" stroke-width="1" color="#000"><path stroke="#9400D3" d="M516.2,72.1 L558.4,72.1 M53.9,249.0 L59.1,229.6 L64.3,210.3 L69.5,191.4 L74.7,173.1 L80.0,155.6 L85.2,139.0 L90.4,123.5 L95.6,109.2 L100.8,96.3 L106.0,85.0 L111.2,75.3 L116.4,67.3 L121.6,61.2 L126.9,56.9 L132.1,54.6 L137.3,54.2 L142.5,55.7 L147.7,59.2 L152.9,64.6 L158.1,71.8 L163.3,80.8 L168.5,91.4 L173.8,103.7 L179.0,117.4 L184.2,132.4 L189.4,148.6 L194.6,165.7 L199.8,183.7 L205.0,202.4 L210.2,221.5 L215.4,240.9 L220.7,260.4 L225.9,279.8 L231.1,298.9 L236.3,317.4 L241.5,335.3 L246.7,352.3 L251.9,368.3 L257.1,383.1 L262.3,396.6 L267.6,408.6 L272.8,419.0 L278.0,427.7 L283.2,434.6 L288.4,439.6 L293.6,442.8 L298.8,444.0 L304.0,443.3 L309.2,440.6 L314.5,436.0 L319.7,429.5 L324.9,421.3 L330.1,411.3 L335.3,399.7 L340.5,386.6 L345.7,372.1 L350.9,356.4 L356.1,339.6 L361.3,321.9 L366.6,303.5 L371.8,284.6 L377.0,265.2 L382.2,245.8 L387.4,226.3 L392.6,207.1 L397.8,188.3 L403.0,170.1 L408.2,152.7 L413.5,136.3 L418.7,121.0 L423.9,106.9 L429.1,94.3 L434.3,83.3 L439.5,73.8 L444.7,66.2 L449.9,60.4 L455.1,56.4 L460.4,54.4 L465.6,54.3 L470.8,56.2 L476.0,60.0 L481.2,65.7 L486.4,73.2 L491.6,82.4 L496.8,93.4 L502.0,105.9 L507.3,119.8 L512.5,135.0 L517.7,151.4 L522.9,168.7 L528.1,186.8 L533.3,205.6 L538.5,224.8 L543.7,244.2 L548.9,263.7 L554.2,283.0 L559.4,302.0 L564.6,320.5 L569.8,338.2"/></g></g><g fill="none" stroke="currentColor" stroke-linecap="butt" stroke-linejoin="miter" stroke-width="1" color="#000"><path stroke="#000" d="M53.9,54.1 L53.9,444.0 L575.0,444.0 L575.0,54.1 L53.9,54.1 Z"/></g></g></svg>